<svg width="800" height="600" xmlns="http://www.w3.org/2000/svg">
  <defs>
    <linearGradient id="grad3" x1="0%" y1="0%" x2="100%" y2="100%">
      <stop offset="0%" style="stop-color:#f59e0b;stop-opacity:1" />
      <stop offset="100%" style="stop-color:#f97316;stop-opacity:1" />
    </linearGradient>
  </defs>
  <rect width="800" height="600" fill="#0f172a"/>
  <rect width="800" height="600" fill="url(#grad3)" opacity="0.1"/>
  
  <!-- Waveform -->
  <g opacity="0.4">
    <rect x="50" y="280" width="8" height="40" fill="#f59e0b" rx="4"/>
    <rect x="70" y="260" width="8" height="80" fill="#f97316" rx="4"/>
    <rect x="90" y="240" width="8" height="120" fill="#f59e0b" rx="4"/>
    <rect x="110" y="220" width="8" height="160" fill="#f97316" rx="4"/>
    <rect x="130" y="200" width="8" height="200" fill="#f59e0b" rx="4"/>
    <rect x="150" y="220" width="8" height="160" fill="#f97316" rx="4"/>
    <rect x="170" y="240" width="8" height="120" fill="#f59e0b" rx="4"/>
    <rect x="190" y="260" width="8" height="80" fill="#f97316" rx="4"/>
    <rect x="210" y="280" width="8" height="40" fill="#f59e0b" rx="4"/>
    
    <rect x="600" y="280" width="8" height="40" fill="#f59e0b" rx="4"/>
    <rect x="620" y="260" width="8" height="80" fill="#f97316" rx="4"/>
    <rect x="640" y="240" width="8" height="120" fill="#f59e0b" rx="4"/>
    <rect x="660" y="220" width="8" height="160" fill="#f97316" rx="4"/>
    <rect x="680" y="200" width="8" height="200" fill="#f59e0b" rx="4"/>
    <rect x="700" y="220" width="8" height="160" fill="#f97316" rx="4"/>
    <rect x="720" y="240" width="8" height="120" fill="#f59e0b" rx="4"/>
  </g>
  
  <!-- Microphone icon -->
  <g transform="translate(350, 150)">
    <ellipse cx="50" cy="40" rx="25" ry="35" fill="#f59e0b" opacity="0.3"/>
    <rect x="35" y="30" width="30" height="50" rx="15" fill="#f59e0b" opacity="0.5"/>
    <line x1="50" y1="80" x2="50" y2="110" stroke="#f97316" stroke-width="4" opacity="0.5"/>
    <line x1="30" y1="110" x2="70" y2="110" stroke="#f97316" stroke-width="4" stroke-linecap="round" opacity="0.5"/>
  </g>
  
  <!-- Text -->
  <text x="400" y="480" font-family="Arial, sans-serif" font-size="24" fill="#94a3b8" text-anchor="middle" opacity="0.5">
    Audio Production
  </text>
</svg>
